<svg width="147" height="40" fill="none" xmlns="http://www.w3.org/2000/svg"><path d="M25.941 23.985c-.306-3.16-5.458-5.02-6.562-5.392-1.41-.434-3.005-.93-4.047-1.983-1.41-1.426-2.147-3.285-2.147-5.268 0-1.984.736-3.843 2.147-5.268a7.24 7.24 0 015.213-2.17 7.24 7.24 0 015.212 2.17c1.41 1.425 2.147 3.284 2.147 5.268 0 1.611-.49 3.16-1.472 4.462-.92-.868-2.024-1.487-3.312-1.86.675-.681 1.043-1.61 1.043-2.602 0-.992-.368-1.922-1.043-2.603a3.596 3.596 0 00-2.575-1.054c-.982 0-1.902.372-2.576 1.054-.675.681-1.043 1.611-1.043 2.603 0 .991.368 1.921 1.043 2.603.674.681 2.146 1.177 2.82 1.363 4.355 1.302 8.096 3.78 6.502 8.429 2.391-4.028 4.538-8.677 4.538-12.395C31.829 5.082 26.739 0 20.545 0 14.289 0 9.26 5.082 9.26 11.404c0 8.614 11.285 21.94 11.285 21.94s2.085-2.48 4.476-5.95c.552-.992 1.043-2.232.92-3.41zm14.719 4.772l.429 1.674 2.085-4.773-4.661 2.232 1.656.372 1.533-1.116-1.043 1.611z" fill="#292949"/><path d="M30.111 38.177l-18.214-8.8L0 37.806l1.165 1.735 11.1-7.81 17.785 7.314.245.124.184-.186 9.813-10.35-10.18 9.544z" fill="#75DFBC"/><path d="M55.5 11.465c-.306-1.487-1.962-2.169-3.372-2.107-1.104 0-2.33.434-3.005 1.24-.307.434-.43.991-.43 1.55.123 1.735 1.963 1.92 3.741 2.106 2.27.31 5.09.868 5.704 3.533.06.372.122.744.122 1.116 0 3.222-3.127 5.082-6.132 5.082-2.515 0-5.643-1.55-5.95-4.525v-.434l2.393-.061v.371-.123c.184 1.549 2.023 2.355 3.557 2.355 1.778 0 3.68-.992 3.68-2.727 0-.186 0-.372-.062-.558-.307-1.24-1.963-1.488-3.618-1.674-2.576-.248-5.581-.805-5.827-4.338a4.285 4.285 0 01.92-3.16c1.104-1.426 3.067-2.232 4.968-2.232 2.514 0 5.151 1.364 5.58 4.4l-2.268.186zm6.072-1.983c1.533-1.549 3.618-2.54 5.948-2.54 2.33 0 4.416.991 5.95 2.54 1.471 1.55 2.452 3.657 2.452 6.012 0 2.355-.981 4.462-2.453 6.012-1.533 1.55-3.618 2.541-5.949 2.541-2.33 0-4.415-.93-5.948-2.541-1.472-1.55-2.453-3.657-2.453-6.012 0-2.355.92-4.462 2.453-6.012zm10.18 1.736a6.045 6.045 0 00-4.293-1.798c-1.656 0-3.128.682-4.231 1.798a6.065 6.065 0 00-1.779 4.338c0 1.674.675 3.223 1.779 4.277 1.103 1.115 2.575 1.797 4.231 1.797 1.656 0 3.128-.682 4.293-1.797 1.043-1.116 1.717-2.603 1.717-4.277 0-1.797-.674-3.285-1.717-4.338zm7.911 10.226h7.727v2.417H77.272V7.189h2.391v14.255zM94.381 7.19c5.397 0 8.095 4.152 8.095 8.304s-2.698 8.305-8.095 8.305h-5.887V7.189h5.887zm0 14.254c3.803 0 5.766-2.975 5.766-5.888 0-2.975-1.901-5.95-5.766-5.95h-3.556v11.838h3.556zm11.408-11.962c1.533-1.549 3.618-2.54 5.948-2.54 2.33 0 4.416.991 5.948 2.54 1.472 1.55 2.453 3.657 2.453 6.012 0 2.355-.981 4.462-2.453 6.012-1.532 1.55-3.618 2.541-5.948 2.541-2.33 0-4.415-.93-5.948-2.541-1.472-1.55-2.454-3.657-2.454-6.012 0-2.355.982-4.462 2.454-6.012zm10.179 1.736a6.042 6.042 0 00-4.292-1.798c-1.595 0-3.128.682-4.232 1.798a6.07 6.07 0 00-1.779 4.338c0 1.674.676 3.223 1.779 4.277 1.104 1.115 2.576 1.797 4.232 1.797 1.655 0 3.127-.682 4.292-1.797 1.043-1.116 1.717-2.603 1.717-4.277.062-1.797-.612-3.285-1.717-4.338z" fill="#292949"/><path d="M115.294 11.9c-.981-.992-2.269-1.55-3.557-1.55-.368 0-.797.062-1.165.186.859.248 1.717.682 2.392 1.364.92.991 1.472 2.23 1.472 3.594 0 1.364-.491 2.665-1.472 3.595-.675.681-1.472 1.115-2.392 1.363.368.124.797.186 1.165.186a5.144 5.144 0 003.557-1.487c.92-.992 1.472-2.231 1.472-3.595 0-1.425-.552-2.727-1.472-3.656z" fill="#75DFBC"/><path d="M121.672 18.84V7.19h2.391v11.65c0 1.86 1.963 2.728 3.68 2.728s3.68-.93 3.68-2.79V7.19h2.392v11.652c0 3.408-3.251 5.144-6.072 5.144-2.882 0-6.071-1.736-6.071-5.144zm17.969 5.083V9.606h-4.968V7.19H147v2.417h-4.968v14.317h-2.391zm-68.257 7.375v.744H46.18v-.744h25.205zm75.616 0v.744h-25.205v-.744H147zm-71.323 4.587v-8.367h.92l3.986 5.888v-5.888h1.166v8.305h-.92l-3.987-5.826v5.826h-1.165v.062zm13.676-7.128H87.82v5.95h1.533v1.178H85.12v-1.178h1.533v-5.95H85.12V27.58h4.232v1.177zm9.077 1.735c-.308-1.363-1.596-1.859-2.638-1.859-1.594 0-2.883 1.302-2.883 3.037 0 1.736 1.227 3.037 2.883 3.037 1.042 0 2.085-.496 2.576-1.674h-3.066v-1.177h4.415c-.061.682-.123 1.177-.245 1.425-.552 1.612-2.27 2.604-3.741 2.604-2.33 0-4.048-1.736-4.048-4.215s1.779-4.214 4.048-4.214c1.594 0 3.496.805 3.925 3.037h-1.227zm5.518.558h3.496v-3.533h1.227v8.305h-1.227v-3.594h-3.496v3.594h-1.165v-8.305h1.165v3.533zm9.874 4.834v-7.251h-2.515v-1.116h6.195v1.116h-2.515v7.251h-1.165z" fill="#292949"/></svg>