<svg width="12" height="12" viewBox="0 0 12 12" fill="none" xmlns="http://www.w3.org/2000/svg">
<path d="M6.424 7.272H5.56C5.53867 7.13333 5.528 7.024 5.528 6.944C5.528 6.49067 5.73867 6.104 6.16 5.784L6.544 5.496C6.77333 5.32533 6.888 5.11467 6.888 4.864C6.888 4.66667 6.81867 4.49867 6.68 4.36C6.54133 4.216 6.344 4.144 6.088 4.144C5.82133 4.144 5.61867 4.23467 5.48 4.416C5.34133 4.592 5.272 4.80267 5.272 5.048C5.272 5.15467 5.28267 5.24 5.304 5.304L4.296 5.264C4.26933 5.17333 4.256 5.05333 4.256 4.904C4.256 4.44533 4.41867 4.048 4.744 3.712C5.07467 3.376 5.52267 3.208 6.088 3.208C6.67467 3.208 7.136 3.36533 7.472 3.68C7.808 3.99467 7.976 4.368 7.976 4.8C7.976 5.37067 7.712 5.84267 7.184 6.216L6.856 6.448C6.568 6.656 6.424 6.91467 6.424 7.224V7.272ZM5.56 8.88C5.43733 8.75733 5.376 8.608 5.376 8.432C5.376 8.256 5.43733 8.10667 5.56 7.984C5.68267 7.856 5.832 7.792 6.008 7.792C6.184 7.792 6.33333 7.856 6.456 7.984C6.584 8.10667 6.648 8.256 6.648 8.432C6.648 8.608 6.584 8.75733 6.456 8.88C6.33333 9.00267 6.184 9.064 6.008 9.064C5.832 9.064 5.68267 9.00267 5.56 8.88Z" fill="#B0B3C2"/>
<circle cx="6" cy="6" r="5.5" stroke="#B0B3C2"/>
</svg>
