<svg width="147" height="40" viewBox="0 0 147 40" fill="none" xmlns="http://www.w3.org/2000/svg">
<path d="M25.9413 23.9849C25.6346 20.8241 20.4832 18.9648 19.3793 18.5929C17.9688 18.1591 16.3743 17.6633 15.3318 16.6097C13.9213 15.1842 13.1854 13.3249 13.1854 11.3417C13.1854 9.35842 13.9213 7.49915 15.3318 6.07369C16.7423 4.64823 18.5821 3.90452 20.5446 3.90452C22.507 3.90452 24.3468 4.64823 25.7573 6.07369C27.1678 7.49915 27.9037 9.35842 27.9037 11.3417C27.9037 12.9531 27.4131 14.5025 26.4319 15.804C25.512 14.9364 24.4081 14.3166 23.1203 13.9447C23.7948 13.263 24.1628 12.3333 24.1628 11.3417C24.1628 10.35 23.7948 9.42046 23.1203 8.73868C22.4456 8.05694 21.5258 7.68508 20.5446 7.68508C19.5633 7.68508 18.6434 8.05694 17.9688 8.73868C17.2942 9.42046 16.9262 10.35 16.9262 11.3417C16.9262 12.3333 17.2942 13.263 17.9688 13.9447C18.6434 14.6264 20.1152 15.1222 20.7899 15.3082C25.144 16.6097 28.885 19.0887 27.2905 23.737C29.6822 19.7086 31.8286 15.0603 31.8286 11.3417C31.8286 5.08206 26.7385 0 20.5446 0C14.2892 0 9.26038 5.08206 9.26038 11.4036C9.26038 20.0184 20.5446 33.3433 20.5446 33.3433C20.5446 33.3433 22.6297 30.8643 25.0213 27.3936C25.5733 26.402 26.0639 25.1624 25.9413 23.9849Z" fill="#292949"/>
<path d="M40.6594 28.7573L41.0887 30.4306L43.1739 25.6584L38.5129 27.8896L40.1688 28.2615L41.702 27.1459L40.6594 28.7573Z" fill="#292949"/>
<path d="M30.1114 38.1774L11.8974 29.3768L0 37.8056L1.1652 39.541L12.2653 31.7318L30.05 39.0451L30.2953 39.1691L30.4793 38.9831L40.2916 28.6331L30.1114 38.1774Z" fill="#75DFBC"/>
<path d="M55.5005 11.4654C55.1939 9.97799 53.538 9.29623 52.1276 9.35817C51.0237 9.35817 49.7971 9.79203 49.1225 10.5977C48.8158 11.0316 48.6932 11.5893 48.6932 12.1471C48.8158 13.8825 50.6557 14.0684 52.4341 14.2544C54.7033 14.5642 57.5243 15.122 58.1375 17.787C58.1988 18.1588 58.2602 18.5307 58.2602 18.9025C58.2602 22.1253 55.1325 23.9847 52.1276 23.9847C49.6131 23.9847 46.4854 22.4352 46.1788 19.4604V19.0265L48.5705 18.9646V19.3364V19.2125C48.7545 20.7619 50.5943 21.5676 52.1276 21.5676C53.906 21.5676 55.8071 20.5759 55.8071 18.8406C55.8071 18.6546 55.8071 18.4688 55.7458 18.2828C55.4392 17.0433 53.7833 16.7954 52.1276 16.6094C49.5517 16.3615 46.5468 15.8038 46.3015 12.2711C46.1788 11.1556 46.4854 10.0399 47.2213 9.1103C48.3252 7.68484 50.2877 6.87915 52.1888 6.87915C54.7033 6.87915 57.3403 8.24263 57.7696 11.2795L55.5005 11.4654Z" fill="#292949"/>
<path d="M61.5717 9.48249C63.1049 7.93303 65.19 6.94141 67.5204 6.94141C69.8508 6.94141 71.9359 7.93303 73.4691 9.48249C74.941 11.0319 75.9222 13.139 75.9222 15.4942C75.9222 17.8493 74.941 19.9564 73.4691 21.5058C71.9359 23.0553 69.8508 24.047 67.5204 24.047C65.19 24.047 63.1049 23.1173 61.5717 21.5058C60.0999 19.9564 59.1187 17.8493 59.1187 15.4942C59.1187 13.139 60.0386 11.0319 61.5717 9.48249ZM71.752 11.2177C70.6481 10.1022 69.1149 9.42044 67.4591 9.42044C65.8033 9.42044 64.3314 10.1022 63.2276 11.2177C62.1237 12.3334 61.4491 13.8208 61.4491 15.5562C61.4491 17.2295 62.1237 18.779 63.2276 19.8325C64.3314 20.9481 65.8033 21.6298 67.4591 21.6298C69.1149 21.6298 70.5868 20.9481 71.752 19.8325C72.7945 18.7169 73.4691 17.2295 73.4691 15.5562C73.4691 13.7589 72.7945 12.2714 71.752 11.2177Z" fill="#292949"/>
<path d="M79.6632 21.4437H87.3904V23.8607H77.2715V7.18909H79.6632V21.4437Z" fill="#292949"/>
<path d="M94.3813 7.18909C99.7781 7.18909 102.476 11.3416 102.476 15.4939C102.476 19.6464 99.7781 23.7988 94.3813 23.7988H88.4943V7.18909H94.3813ZM94.3813 21.4437C98.184 21.4437 100.147 18.4688 100.147 15.5559C100.147 12.581 98.2456 9.6062 94.3813 9.6062H90.8247V21.4437H94.3813Z" fill="#292949"/>
<path d="M105.789 9.48249C107.322 7.93303 109.407 6.94141 111.737 6.94141C114.067 6.94141 116.153 7.93303 117.685 9.48249C119.157 11.0319 120.138 13.139 120.138 15.4942C120.138 17.8493 119.157 19.9564 117.685 21.5058C116.153 23.0553 114.067 24.047 111.737 24.047C109.407 24.047 107.322 23.1173 105.789 21.5058C104.317 19.9564 103.335 17.8493 103.335 15.4942C103.335 13.139 104.317 11.0319 105.789 9.48249ZM115.968 11.2177C114.865 10.1022 113.331 9.42044 111.676 9.42044C110.081 9.42044 108.548 10.1022 107.444 11.2177C106.341 12.3334 105.665 13.8208 105.665 15.5562C105.665 17.2295 106.341 18.779 107.444 19.8325C108.548 20.9481 110.02 21.6298 111.676 21.6298C113.331 21.6298 114.803 20.9481 115.968 19.8325C117.011 18.7169 117.685 17.2295 117.685 15.5562C117.747 13.7589 117.073 12.2714 115.968 11.2177Z" fill="#292949"/>
<path d="M115.294 11.8995C114.313 10.9079 113.025 10.3501 111.737 10.3501C111.369 10.3501 110.94 10.4121 110.572 10.536C111.431 10.7839 112.289 11.2177 112.964 11.8995C113.884 12.8911 114.436 14.1307 114.436 15.4941C114.436 16.8576 113.945 18.1591 112.964 19.0888C112.289 19.7705 111.492 20.2043 110.572 20.4522C110.94 20.5761 111.369 20.6382 111.737 20.6382C113.025 20.6382 114.374 20.0803 115.294 19.1507C116.214 18.1591 116.766 16.9196 116.766 15.5561C116.766 14.1307 116.214 12.8292 115.294 11.8995Z" fill="#75DFBC"/>
<path d="M121.672 18.8406V7.18909H124.063V18.8406C124.063 20.7 126.026 21.5676 127.743 21.5676C129.46 21.5676 131.423 20.638 131.423 18.7787V7.18909H133.815V18.8406C133.815 22.2494 130.564 23.9847 127.743 23.9847C124.861 23.9847 121.672 22.2494 121.672 18.8406Z" fill="#292949"/>
<path d="M139.641 23.9228V9.6062H134.673V7.18909H147V9.6062H142.032V23.9228H139.641Z" fill="#292949"/>
<path d="M71.3841 31.2981V32.0418H46.1788V31.2981H71.3841Z" fill="#292949"/>
<path d="M147 31.2981V32.0418H121.795V31.2981H147Z" fill="#292949"/>
<path d="M75.6771 35.8847V27.5178H76.5971L80.5832 33.4056V27.5178H81.7485V35.8227H80.8285L76.8424 29.9969V35.8227H75.6771V35.8847Z" fill="#292949"/>
<path d="M89.3528 28.7573H87.8196V34.707H89.3528V35.8846H85.1212V34.707H86.6544V28.7573H85.1212V27.5797H89.3528V28.7573Z" fill="#292949"/>
<path d="M98.4293 30.4925C98.1225 29.1291 96.8344 28.6333 95.7925 28.6333C94.1976 28.6333 92.9095 29.9348 92.9095 31.6701C92.9095 33.4055 94.136 34.7069 95.7925 34.7069C96.8344 34.7069 97.8772 34.2111 98.3678 33.0335H95.3019V31.8561H99.7174C99.6559 32.5377 99.5943 33.0335 99.4721 33.2815C98.9199 34.8929 97.2028 35.8845 95.731 35.8845C93.4001 35.8845 91.6832 34.1492 91.6832 31.6701C91.6832 29.191 93.4617 27.4557 95.731 27.4557C97.325 27.4557 99.2268 28.2614 99.6559 30.4925H98.4293Z" fill="#292949"/>
<path d="M103.948 31.0501H107.444V27.5175H108.671V35.8223H107.444V32.2277H103.948V35.8223H102.783V27.5175H103.948V31.0501Z" fill="#292949"/>
<path d="M113.822 35.8842V28.633H111.307V27.5175H117.502V28.633H114.987V35.8842H113.822Z" fill="#292949"/>
</svg>
